<svg xmlns="http://www.w3.org/2000/svg" width="36" height="36" viewBox="0 0 36 36" fill="none">
  <g filter="url(#filter0_b_1730_17443)">
    <rect width="36" height="36" rx="18" fill="#323232" fill-opacity="0.3"/>
    <path d="M16.5973 8.09751C14.6379 8.37696 12.6086 9.36379 11.1478 10.7436C7.56148 14.1407 6.96667 19.5727 9.73951 23.651C10.2206 24.3583 11.2878 25.4587 11.9963 25.9914C13.6057 27.1966 15.9762 28 17.9181 28H18.4516L18.5041 25.7556C18.5391 24.5243 18.5654 22.9611 18.5654 22.2886C18.5654 21.2843 18.6003 20.9961 18.7316 20.708C18.9065 20.315 19.3526 19.8434 19.7375 19.6425C20.0961 19.4591 21.9767 18.6557 22.0642 18.6557C22.0992 18.6557 22.1167 18.9963 22.1079 19.4155C22.0904 20.0442 22.0467 20.2626 21.863 20.6294C21.5919 21.1621 20.9796 21.721 20.2973 22.0703C20.0174 22.21 19.755 22.4022 19.7025 22.4982C19.65 22.5943 19.615 22.9611 19.6325 23.3104L19.6587 23.9479L20.7521 23.3715C22.073 22.6816 22.6765 22.1314 23.1226 21.2319L23.42 20.6206L23.4462 16.717C23.4725 12.8832 23.4637 12.8046 23.2888 12.6299C23.1926 12.5339 23.0001 12.4553 22.8427 12.4553C22.6853 12.4553 21.6356 12.8919 20.2973 13.5032C19.0377 14.0796 17.9618 14.5512 17.9006 14.5512C17.8481 14.5512 16.7634 14.0796 15.5039 13.5032C14.2443 12.9269 13.0984 12.4553 12.9672 12.4553C12.836 12.4553 12.6348 12.5339 12.5211 12.6212L12.3112 12.7871L12.2849 16.3153C12.2587 20.1054 12.3024 20.6468 12.6785 21.3891C13.0897 22.21 13.632 22.6379 15.4776 23.5898L17.1658 24.4631V25.5024V26.5416L16.6585 26.4892C15.5126 26.3669 13.7282 25.5984 12.7048 24.7863C9.07473 21.8869 8.32248 16.7519 10.9816 13.0404C11.3927 12.4727 12.3549 11.4859 12.8797 11.1017C16.2999 8.56909 21.0758 8.91841 24.076 11.9313C27.1988 15.0664 27.4524 19.922 24.6796 23.4239C24.111 24.14 23.6037 24.5941 22.7027 25.188C21.8893 25.712 20.8658 26.1661 20.0436 26.3407L19.545 26.4543L19.5013 27.118C19.4751 27.4848 19.4838 27.8079 19.5188 27.8428C19.5975 27.9301 21.1283 27.5197 21.9243 27.1966C23.2188 26.6813 24.7583 25.546 25.6855 24.4195C28.2309 21.328 28.7208 17.11 26.9364 13.5469C25.0295 9.73058 20.7871 7.49493 16.5973 8.09751ZM22.1254 15.1538C22.0817 15.8699 22.038 16.062 21.7843 16.551C21.6006 16.9091 21.3644 17.2148 21.137 17.3894C20.8221 17.6339 19.3089 18.35 18.749 18.5247L18.5391 18.5858L18.5829 17.6427C18.6178 16.9091 18.6616 16.6122 18.8015 16.3415C19.0639 15.8437 19.65 15.3284 20.3148 15.0315C20.6209 14.883 21.137 14.6473 21.4519 14.4988C21.7668 14.3503 22.0555 14.2455 22.0992 14.2717C22.1429 14.2979 22.1517 14.6909 22.1254 15.1538ZM15.2764 14.9354C16.9122 15.7127 17.1658 16.0882 17.1658 17.7562C17.1658 18.8129 17.2795 18.7605 16.0899 18.254C15.2677 17.9047 15.0403 17.8872 14.7604 18.1754C14.253 18.6819 14.5767 19.1185 15.8537 19.6338C17.1133 20.149 17.1658 20.2276 17.1658 21.721C17.1658 22.341 17.1396 22.8475 17.1133 22.8475C17.0871 22.8475 16.5885 22.603 16.0024 22.3061C14.8128 21.6948 14.288 21.2756 13.9469 20.6206L13.7107 20.184L13.6845 17.2235L13.6582 14.2717L13.8856 14.3241C14.0081 14.3591 14.6292 14.6298 15.2764 14.9354Z" fill="white"/>
  </g>
  <defs>
    <filter id="filter0_b_1730_17443" x="-20" y="-20" width="76" height="76" filterUnits="userSpaceOnUse" color-interpolation-filters="sRGB">
      <feFlood flood-opacity="0" result="BackgroundImageFix"/>
      <feGaussianBlur in="BackgroundImageFix" stdDeviation="10"/>
      <feComposite in2="SourceAlpha" operator="in" result="effect1_backgroundBlur_1730_17443"/>
      <feBlend mode="normal" in="SourceGraphic" in2="effect1_backgroundBlur_1730_17443" result="shape"/>
    </filter>
  </defs>
</svg>