<svg width="14" height="14" viewBox="0 0 14 14" fill="none" xmlns="http://www.w3.org/2000/svg">
<g id="shopping-cart-01-stroke-rounded 1" clip-path="url(#clip0_1730_17447)">
<path id="Vector" d="M4.66667 9.33329H8.90353C11.5213 9.33329 11.9194 7.68876 12.4022 5.29026C12.5415 4.59844 12.6112 4.25254 12.4437 4.02208C12.2762 3.79163 11.9552 3.79163 11.3132 3.79163H3.5" stroke="white" stroke-linecap="round"/>
<path id="Vector_2" d="M4.66659 9.33329L3.13751 2.05034C3.00767 1.53097 2.54102 1.16663 2.00568 1.16663H1.45825" stroke="white" stroke-linecap="round"/>
<path id="Vector_3" d="M5.18 9.33337H4.94C4.14471 9.33337 3.5 10.005 3.5 10.8334C3.5 10.9714 3.60745 11.0834 3.74 11.0834H10.2083" stroke="white" stroke-linecap="round" stroke-linejoin="round"/>
<path id="Vector_4" d="M6.125 12.8334C6.60825 12.8334 7 12.4416 7 11.9584C7 11.4751 6.60825 11.0834 6.125 11.0834C5.64175 11.0834 5.25 11.4751 5.25 11.9584C5.25 12.4416 5.64175 12.8334 6.125 12.8334Z" stroke="white"/>
<path id="Vector_5" d="M10.2083 12.8334C10.6915 12.8334 11.0833 12.4416 11.0833 11.9584C11.0833 11.4751 10.6915 11.0834 10.2083 11.0834C9.725 11.0834 9.33325 11.4751 9.33325 11.9584C9.33325 12.4416 9.725 12.8334 10.2083 12.8334Z" stroke="white"/>
</g>
<defs>
<clipPath id="clip0_1730_17447">
<rect width="14" height="14" fill="white"/>
</clipPath>
</defs>
</svg>
