<svg width="14" height="14" viewBox="0 0 14 14" fill="none" xmlns="http://www.w3.org/2000/svg">
<g id="user-stroke-rounded 1">
<path id="Vector" d="M3.83692 9.03091C3.01164 9.52231 0.847795 10.5257 2.16572 11.7813C2.80952 12.3946 3.52654 12.8333 4.42801 12.8333H9.57198C10.4735 12.8333 11.1905 12.3946 11.8343 11.7813C13.1522 10.5257 10.9884 9.52231 10.1631 9.03091C8.2278 7.87853 5.7722 7.87853 3.83692 9.03091Z" stroke="white" stroke-linecap="round" stroke-linejoin="round"/>
<path id="Vector_2" d="M9.625 3.79163C9.625 5.24137 8.44976 6.41663 7 6.41663C5.55025 6.41663 4.375 5.24137 4.375 3.79163C4.375 2.34188 5.55025 1.16663 7 1.16663C8.44976 1.16663 9.625 2.34188 9.625 3.79163Z" stroke="white"/>
</g>
</svg>
